# xmcd
# Track frame offsets:
# 150
# 16724
# 32445
# 48561
# 66166
# 82837
# 99225
# 115839
# 133712
# 153280
# 170730
# 185544
# 202979
# 218362
# 235828
# 252958
# 269442
# 284704
# 301901
#
# Disc length: 4218 seconds
# Revision: 2
# Processed by: cddbd v1.5.2PL0 Copyright (c) Steve Scherf et al.
# Submitted via: VisiTrax 2.10.0.248 - For more info visit www.synapsa.com
#
DISCID=fb107813
DTITLE=Various Artist - Country Radio - 2006-11
DYEAR=2007
DGENRE=Country
TTITLE0=Trace Adkins - Ladies Love Country Boys
TTITLE1=Wreckers, The - My, Oh My
TTITLE2=Billy Currington - Good Directions
TTITLE3=Jake Owens - Startin' With Me
TTITLE4=Kellie Pickler - Red High Heels
TTITLE5=Little Big Town - Good As Gone
TTITLE6=Clay Walker - Fore She Was Mama
TTITLE7=Keith Anderson - Podunk
TTITLE8=Faith Hill - Stealing Kisses
TTITLE9=Rodney Atkins - Watching You
TTITLE10=Jimmy Wayne - That's All I'll Ever Need
TTITLE11=Ashley Monroe w/Ronnie Dunn - I Don't Want To
TTITLE12=Steve Holy - Come On Rain
TTITLE13=Bob Seger - Wreck This Heart
TTITLE14=Lindsey Haun - Broken
TTITLE15=Kenny Rogers - Last 10 Years (Superman), The
TTITLE16=Tyler Dean - Built For Bluejeans
TTITLE17=Frank Carillo and the Bandoleros - Red Queen
TTITLE18=Ty Herndon - Right About Now
EXTD=
EXTT0=
EXTT1=
EXTT2=
EXTT3=
EXTT4=
EXTT5=
EXTT6=
EXTT7=
EXTT8=
EXTT9=
EXTT10=
EXTT11=
EXTT12=
EXTT13=
EXTT14=
EXTT15=
EXTT16=
EXTT17=
EXTT18=
PLAYORDER=
